<svg t="1664694972960" class="icon" viewBox="0 0 1024 1024" version="1.1" xmlns="http://www.w3.org/2000/svg" p-id="6585" width="200" height="200"><path d="M798.7 1003.5H225.3c-67.8 0-122.9-55.1-122.9-122.9V757.8C102.4 599.7 231 471 389.1 471h245.8c158.1 0 286.7 128.6 286.7 286.7v122.9c0 67.8-55.1 122.9-122.9 122.9zM389.1 553c-112.9 0-204.8 91.9-204.8 204.8v122.9c0 22.6 18.4 41 41 41h573.4c22.6 0 41-18.4 41-41V757.8c0-112.9-91.9-204.8-204.8-204.8H389.1zM497.4 102.4c93.2 0 117.4 21.5 119.9 24 24.5 24.5 38.1 57.2 38.1 91.9s-13.5 67.3-38.1 91.9c-24.5 24.5-57.2 38.1-91.9 38.1s-67.3-13.5-91.9-38.1c-15.8-15.8-32.7-82.3-19.1-202.8 24-2.7 53.1-5 83-5m0-81.9c-46.9 0-91.4 4.9-120.7 9.1-20.8 2.9-37.1 19.2-40 40-10.1 71.4-24.8 234.7 38.9 298.4 41.4 41.4 95.6 62 149.8 62 54.2 0 108.4-20.7 149.8-62 82.7-82.7 82.7-216.9 0-299.6-37.7-37.7-110.1-47.9-177.8-47.9z" p-id="6586" fill="currentColor"></path><path d="M512.9 665.3c-22.5 0-41 18.4-41 41v81.9c0 22.5 18.4 41 41 41 22.5 0 41-18.4 41-41v-81.9c0-22.6-18.5-41-41-41z" p-id="6587" fill="currentColor"></path></svg>