<svg t="1668691424303" class="icon" viewBox="0 0 1024 1024" version="1.1" xmlns="http://www.w3.org/2000/svg" p-id="4215" width="230" height="230"><path d="M626.665553 478.206336c0 11.271718-9.532097 20.578688-21.053502 20.578688-11.249205 0-20.532639-9.30697-20.532639-20.578688 0-5.872754-2.463098-11.249205-6.371104-15.157211-3.930519-3.908006-9.30697-6.370081-15.4509-6.370081l-14.908548 0-15.654538 0-41.133839 0-15.655562 0-15.157211 0c-5.895267 0-11.294231 2.462075-15.4509 6.370081-3.65832 3.908006-6.098905 9.284457-6.098905 15.157211l0 20.827351 0 0.226151 0 24.960485 0 0.497327 0 20.804838c0 5.872754 2.440585 11.249205 6.347568 15.405875 3.908006 3.433192 9.30697 6.121418 15.202237 6.121418l15.157211 0 15.655562 0 41.133839 0 15.654538 0 14.908548 0 2.213411 0c16.422018 0.496304 31.330566 7.838525 42.603307 18.612916 11.249205 11.248182 18.590404 27.174919 18.590404 44.296879l0 19.810185 0 1.740644 0 45.991474c0 17.145495-7.341199 33.296337-18.590404 44.545542-11.746532 11.249205-27.671223 18.590404-44.545542 18.590404l-30.834262 0 0 17.889439c0 11.498892-9.30697 20.286022-20.577664 20.286022-11.250228 0-20.556175-8.78713-20.556175-20.286022l0-17.889439-30.812773 0c-17.145495 0-33.070186-7.341199-44.319391-18.590404-11.497868-11.249205-18.590404-27.400047-18.590404-44.545542 0-11.520381 9.555633-20.556175 20.804838-20.556175 11.250228 0 20.556175 9.035794 20.556175 20.556175 0 5.872754 2.440585 11.023054 6.347568 15.179724 3.908006 3.659343 9.30697 6.370081 15.202237 6.370081l15.157211 0 15.655562 0 41.133839 0 25.932626 0 4.901637 0c5.872754 0 11.249205-2.710738 15.179724-6.370081 3.908006-4.15667 6.371104-9.30697 6.371104-15.179724 0-22.520923 0-45.02138 0-67.541279 0-5.398964-2.463098-10.775414-6.371104-14.953573-4.15667-4.15667-9.30697-6.325056-15.4509-6.325056l-4.630461 0-25.932626 0-41.133839 0-15.655562 0-15.157211 0-2.213411-0.249687c-16.422018-0.518816-31.578206-7.340175-42.354644-18.612916-11.249205-11.271718-18.58938-27.152407-18.58938-44.296879l0-20.804838 0-0.497327 0-24.960485 0-0.226151 0-20.827351c0-17.122983 7.340175-33.025161 18.838044-44.545542 11.249205-11.249205 27.174919-18.342764 44.319391-18.342764l30.812773 0 0-18.116613c0-11.249205 9.305947-20.804838 20.556175-20.804838 11.270694 0 20.577664 9.555633 20.577664 20.804838l0 18.116613 30.563086 0c17.145495 0 33.070186 6.844895 44.816718 18.342764C619.324354 445.181175 626.665553 461.084377 626.665553 478.206336L626.665553 478.206336zM512.11768 960.619484 512.11768 960.619484l-0.972141 0L140.345422 960.619484c-18.816554 0-34.471093-15.4509-34.471093-34.516118 0-8.809643 3.41068-16.896832 8.78713-23.2444 16.648169-20.330024 32.054043-53.377698 43.800575-89.36226 12.017708-36.210713 19.833721-75.131141 19.833721-107.682511L178.295755 543.308053c0-45.291532 8.832156-88.119967 25.457812-127.763872 16.648169-40.841174 41.608653-77.819366 72.442916-108.156302 32.302707-33.025161 69.258387-56.789401 108.178815-72.691579 19.110243-7.838525 38.424124-13.688767 58.256822-17.619286l-94.490048-94.467535c-13.462616-13.71128-13.462616-35.735899 0-48.950875 6.867408-6.618744 15.428388-10.278087 24.486694-10.278087l0.971118 0 278.026154 0c19.110243 0 34.516118 15.903202 34.516118 34.742269 0 9.555633-3.681856 18.116613-10.051937 24.486694L581.396533 217.077014c19.810185 3.930519 39.395242 9.780761 58.234309 17.619286 38.921451 15.903202 75.877131 39.666418 108.449991 72.691579 60.673871 59.97393 97.878215 143.643538 97.878215 235.920174l0 162.506141c0 32.55137 7.816013 71.471798 19.585057 107.682511 12.220323 36.978193 28.3947 70.500681 44.771693 91.056855 12.018731 14.930037 10.051937 36.707017-5.127787 48.476061-6.370081 4.879124-14.186094 7.589862-21.527292 7.589862L512.11768 960.619484 512.11768 960.619484zM201.312982 891.587248 201.312982 891.587248l309.831534 0 0.972141 0 310.600037 0c-8.583492-17.641799-16.400528-36.70804-22.77061-57.038064-13.959943-42.579771-22.995737-88.842421-22.995737-128.733966L776.950348 543.308053c0-73.414033-29.885658-139.261741-77.841879-187.444113-25.955138-26.451442-55.320956-45.042869-85.657892-57.534368-32.32522-13.237489-66.818825-19.336394-100.837616-19.087731L512.11768 279.241842l-0.475837 0c-33.793664-0.248663-68.512397 5.850242-101.063767 19.087731-30.359448 12.491499-59.476603 31.082926-85.431741 57.534368-24.463158 24.690332-44.545542 53.829999-58.256822 86.132706-12.739139 31.060413-19.833721 65.576531-19.833721 101.31243l0 162.506141c0 39.892569-9.035794 86.155219-22.747073 128.733966C217.463824 854.879208 209.874985 873.944426 201.312982 891.587248L201.312982 891.587248zM114.66146 902.858966 114.66146 902.858966c6.867408-6.868431 15.677051-11.271718 25.683962-11.271718L114.66146 902.858966 114.66146 902.858966zM455.824583 132.412752 455.824583 132.412752l56.293097 56.020898 56.0649-56.020898L455.824583 132.412752 455.824583 132.412752z" p-id="4216"></path></svg>