<svg t="1668692597086" class="icon" viewBox="0 0 1024 1024" version="1.1" xmlns="http://www.w3.org/2000/svg" p-id="7014" width="200" height="200"><path d="M832 96h-64V64a32 32 0 0 0-64 0v32H320V64a32 32 0 0 0-64 0v32H192a128 128 0 0 0-128 128v640a128 128 0 0 0 128 128h640a128 128 0 0 0 128-128v-640a128 128 0 0 0-128-128z m64 768a64 64 0 0 1-64 64H192a64 64 0 0 1-64-64v-640a64 64 0 0 1 64-64h64V192a32 32 0 0 0 64 0v-32h384V192a32 32 0 0 0 64 0v-32h64a64 64 0 0 1 64 64v640z" fill="" p-id="7015"></path><path d="M324.224 425.536l-39.36 39.424-39.872-39.808a31.104 31.104 0 0 0-43.904 43.904l65.856 65.856a31.296 31.296 0 0 0 34.112 6.528 33.6 33.6 0 0 0 13.568-8.064l58.752-58.752a34.816 34.816 0 0 0-49.152-49.088zM548.224 425.536l-39.36 39.424-39.872-39.808a31.104 31.104 0 0 0-43.904 43.904l65.856 65.856a31.296 31.296 0 0 0 34.112 6.528 33.6 33.6 0 0 0 13.568-8.064l58.752-58.752a34.816 34.816 0 0 0-49.152-49.088zM772.224 425.536l-39.36 39.424-39.872-39.872a31.104 31.104 0 0 0-43.904 43.904l65.856 65.856a30.976 30.976 0 0 0 33.984 6.592 33.856 33.856 0 0 0 13.632-8.064l58.752-58.752a34.816 34.816 0 0 0 0-49.088 34.816 34.816 0 0 0-49.088 0zM324.224 617.536l-39.424 39.424-39.808-39.808a31.104 31.104 0 0 0-43.904 43.904l65.856 65.856a31.104 31.104 0 0 0 34.048 6.592 33.6 33.6 0 0 0 13.568-8.064l58.752-58.752a34.816 34.816 0 0 0-49.088-49.152z" fill="" p-id="7016"></path><path d="M512 672m-64 0a64 64 0 1 0 128 0 64 64 0 1 0-128 0Z" fill="" p-id="7017"></path><path d="M736 672m-64 0a64 64 0 1 0 128 0 64 64 0 1 0-128 0Z" fill="" p-id="7018"></path></svg>