<svg t="1665923645500" class="icon" viewBox="0 0 1024 1024" version="1.1" xmlns="http://www.w3.org/2000/svg" p-id="3574" width="200" height="200"><path d="M512.103 320.12120601a106.221969 106.221969 0 1 1-75.50697801 31.35499099 106.221969 106.221969 0 0 1 75.50697801-31.35499099m0-63.98898101a170.84995001 170.84995001 0 1 0 120.939965 49.91098501 169.56995001 169.56995001 0 0 0-120.939965-49.91098501z" p-id="3575" fill="#008a89"></path><path d="M805.17291401 124.315264a407.609881 407.609881 0 0 0-586.13982802 0 431.28587399 431.28587399 0 0 0 0 599.576824L512.104 1024l293.06991401-300.107912a431.28587399 431.28587399 0 0 0-2e-8-599.576824zM761.019927 681.6591L512.103 937.615025 263.186073 681.6591a365.376893 365.376893 0 0 1 0-508.712851 346.81989801 346.81989801 0 0 1 497.833854 0 365.376893 365.376893 0 0 1 0 508.712851z" p-id="3576" fill="#008a89"></path></svg>