<svg t="1664709163679" class="icon" viewBox="0 0 1033 1024" version="1.1" xmlns="http://www.w3.org/2000/svg" p-id="9344" width="200" height="200"><path d="M1003.832466 557.023022c-6.827525 0-13.268587-2.705246-17.906151-7.600453-4.766386-4.895207-7.213989-11.46509-6.956347-18.163794 0.257642-5.539313 0.257642-11.078626 0.257642-16.746761 0-128.692414-54.104919-252.876085-148.530884-340.474525-10.048056-9.40395-10.692163-25.120141-1.288212-35.297019 9.40395-10.048056 25.120141-10.692163 35.297018-1.288212 104.602843 97.00239 164.504718 234.454648 164.504718 377.059756 0 6.183419-0.128821 12.366839-0.386464 18.421437-0.515285 13.397408-11.46509 24.089571-24.99132 24.089571zM798.877881 139.513398c-5.281671 0-10.43452-1.674676-14.814442-4.895207-41.73808-30.659454-86.439049-51.528494-145.052711-67.75997-8.759844-2.318782-15.458548-9.017486-17.777331-17.77733-2.318782-8.759844 0.257642-17.906152 6.698704-24.218393s15.716191-8.631023 24.347214-6.054598c64.797081 17.906152 114.522078 41.222795 161.284187 75.746887 8.759844 6.441062 12.238017 17.648509 8.888665 27.954208-3.09171 10.048056-12.753302 17.004403-23.574286 17.004403z m-565.396402 3.09171c-10.820984 0-20.353755-6.956347-23.703108-17.262046-3.349352-10.305699 0.386464-21.513146 9.146308-27.954208C308.068974 32.849415 407.647789 0.128821 514.827057 0.128821c26.279532 0 46.118002 2.06114 67.888791 5.15285 13.655051 1.932319 23.187822 14.5568 21.126682 28.21185-1.932319 13.655051-14.5568 23.187822-28.21185 21.126683-20.224934-2.834067-37.358158-4.637564-60.803623-4.637565-96.358284 0-186.017864 29.628884-266.659957 87.984904-4.379922 3.09171-9.40395 4.637564-14.685621 4.637565zM25.564005 551.226066c-13.52623 0-24.604856-10.820984-24.99132-24.347213-0.128821-4.12228-0.128821-8.37338-0.128821-12.49566 0-142.86275 60.159517-280.443829 165.020002-377.44622 10.176878-9.40395 25.893068-8.759844 35.297019 1.417034 9.40395 10.176878 8.759844 25.893068-1.417034 35.297018-94.683608 87.59844-149.046169 211.782111-149.046169 340.732168 0 3.735816 0 7.471632 0.128821 11.207447 0.386464 13.783872-10.563341 25.248962-24.347213 25.506605l-0.515285 0.128821z m0 0" p-id="9345" fill="currentColor"></path><path d="M795.786171 952.117751c-3.349352 0-6.698704-0.644106-9.919235-2.06114-6.054598-2.576425-10.820984-7.600453-13.268587-13.655051-2.447603-6.183419-2.318782-13.010945 0.257642-19.065543 110.399799-256.354258 117.098503-464.01409 19.194364-600.435778-85.150837-118.644358-221.830167-148.144421-274.646873-143.89332-8.888665 0.772927-17.648509-3.220531-22.672538-10.563341-5.152849-7.34281-5.925777-16.875582-2.06114-24.99132 3.864637-8.115738 11.722732-13.52623 20.740219-14.170336 73.556925-5.925777 225.179519 33.493521 319.219022 164.633539 75.746886 105.633413 134.875833 303.889294-13.912694 649.259026-3.993458 9.017486-13.010945 15.072085-22.93018 14.943264zM257.184586 283.406718c-9.919235 0-18.8079-5.796956-22.801359-14.814442-3.993458-9.017486-2.318782-19.580828 4.251101-26.794817 69.177003-76.648635 161.026544-100.995849 191.170713-108.982765 2.318782-0.644106 3.993458-1.03057 5.281671-1.417034 13.139766-3.735816 26.794817 3.864637 30.659454 16.875582 3.864637 13.139766-3.478173 26.794817-16.489118 30.917096-1.545855 0.515285-3.864637 1.03057-6.698704 1.803498-26.665996 7.085168-107.694553 28.598314-166.952321 94.168323-4.637564 5.281671-11.46509 8.244559-18.421437 8.244559zM63.437448 723.846522c-11.336269 0-21.255504-7.600453-24.218392-18.67908-2.834067-10.949805 2.06114-22.543716 11.980375-28.083029 47.406215-26.408353 59.38659-99.965279 72.139892-177.902126 10.176878-62.478299 20.740219-127.146559 52.1726-172.620455 7.858095-11.336269 23.445465-14.170336 34.781733-6.312241s14.170336 23.445465 6.312241 34.781734c-24.99132 36.198767-34.652912 95.198893-43.928041 152.2667-14.041515 86.052585-28.598314 175.068059-96.873569 213.456787-3.864637 2.06114-7.986917 3.09171-12.366839 3.09171zM115.223585 847.386086c-10.820984 0-20.482576-6.956347-23.831929-17.390866-3.349352-10.305699 0.515285-21.641968 9.275129-27.954209C221.372283 716.246069 234.64087 614.863756 247.394172 516.701975c11.336269-86.56787 22.93018-176.22745 120.190213-226.081268 7.986917-4.12228 17.390867-3.606995 24.991319 1.159391 7.471632 4.895207 11.851554 13.268587 11.46509 22.286074s-5.668134 16.875582-13.526229 20.997861c-73.943389 38.002264-82.574412 104.216379-93.524217 188.079004-12.882124 98.548245-28.855957 221.186061-167.209964 319.734306-4.379922 2.962888-9.40395 4.508743-14.556799 4.508743z m0 0" p-id="9346" fill="currentColor"></path><path d="M690.152758 364.821739c-6.569883 0-13.010945-2.576425-17.648509-7.342811-93.781859-93.524217-219.897849-53.074349-221.186061-52.687885-8.502202 2.962888-17.906152 1.03057-24.604856-4.895207-6.698704-5.925777-9.790414-15.072085-7.858096-23.831929 1.803497-8.759844 8.244559-15.845012 16.746761-18.679079 6.312241-2.06114 156.904265-50.369103 272.19927 64.66826 7.213989 7.085168 9.275129 17.906152 5.410492 27.181281-3.864637 9.532771-13.010945 15.587369-23.059001 15.58737z m69.563467 241.797458c-2.06114 0-3.993458-0.257642-6.054598-0.772927-6.441062-1.545855-11.980375-5.668134-15.329727-11.336269-3.478173-5.668134-4.508743-12.49566-2.834067-18.936721 19.323185-77.936847-34.39527-170.044031-34.910555-170.94578-6.827525-11.851554-2.962888-27.052459 8.888665-34.008806 11.851554-6.956347 27.052459-3.09171 34.137628 8.631023 2.705246 4.508743 64.539439 110.786262 40.449868 208.432759-2.962888 11.207447-12.882124 18.936722-24.347214 18.936721zM622.263967 1010.47377c-8.115738 0-15.200906-5.281671-17.648509-12.882123-2.447603-7.729274 0.386464-16.102654 7.085168-20.740219 26.150711-20.997861 111.816832-271.555164 118.386715-304.146937 1.03057-9.146308 8.631023-16.231476 17.777331-16.489118 10.048056-0.257642 18.679079 7.729274 19.065542 17.906152 0.386464 12.49566-40.321047 129.465342-51.270851 159.738332-56.166059 154.714304-74.845138 167.725248-82.832055 173.264561-3.09171 2.189961-6.827525 3.349352-10.563341 3.349352zM199.859136 930.991068c-10.949805 0-20.611398-7.085168-23.831928-17.519688s0.644106-21.770789 9.790414-27.954208c1.932319-1.288212 187.434897-132.170587 184.987294-381.310857-0.128821-6.569883 2.447603-13.010945 7.085168-17.77733 4.637564-4.766386 10.949805-7.471632 17.519688-7.471632 13.655051 0 25.120141 10.949805 25.248962 24.733677 2.705246 276.579192-198.12706 417.12316-206.629262 423.048937-4.251101 2.834067-9.146308 4.251101-14.170336 4.251101z m0 0" p-id="9347" fill="currentColor"></path><path d="M462.01035 1022.711788c-10.305699 0-19.709649-6.441062-23.316643-16.102655-3.735816-9.661593-1.03057-20.611398 6.698704-27.567744 122.380174-108.853944 167.982891-348.461442 167.982891-473.933325 0-45.602717-46.762108-87.211976-98.03296-87.211976-53.331991 0-93.653038 54.877846-94.812429 91.84954-0.386464 13.783872-11.980375 24.604856-25.764248 24.218393-13.783872-0.386464-24.604856-11.980375-24.218392-25.764247 2.06114-64.797081 65.69883-140.286325 144.666248-140.286326 78.838596 0 147.886778 64.024154 147.886778 137.065795 0 139.513398-49.209712 390.714807-184.729652 511.291483-4.379922 4.251101-10.305699 6.441062-16.360297 6.441062z m0 0" p-id="9348" fill="currentColor"></path><path d="M329.710942 990.506479c-10.820984 0-20.482576-7.085168-23.831929-17.390867-3.349352-10.305699 0.515285-21.641968 9.40395-27.954208 64.66826-45.731539 183.956724-268.463455 175.19688-429.361178-0.386464-6.569883 1.932319-13.139766 6.312241-18.034973 4.379922-4.895207 10.563341-7.858095 17.262045-8.244559 13.655051-0.644106 25.506605 9.790414 26.279532 23.574287 10.176878 185.760221-123.02428 421.116618-196.194741 472.902755-4.251101 2.962888-9.275129 4.508743-14.427978 4.508743z m292.553025 19.967291c-7.600453 0-14.299157-4.637564-17.133224-11.593911-2.834067-6.956347-1.03057-14.943263 4.379922-20.224934 30.530633-29.24242 115.423827-281.603221 120.576676-305.950434 1.03057-9.146308 8.631023-16.231476 17.777331-16.489118 10.048056-0.257642 18.679079 7.729274 19.065542 17.906152 0.386464 13.139766-91.076613 292.166562-131.912945 331.199396-3.478173 3.220531-7.986917 5.152849-12.753302 5.152849z m0 0" p-id="9349" fill="currentColor"></path><path d="M622.263967 1010.47377c-7.471632 0-14.170336-4.508743-17.004403-11.336268-2.834067-6.827525-1.417034-14.685621 3.735816-20.096113 34.652912-35.554661 116.454397-284.179645 121.091961-306.336898 0.901749-9.146308 8.502202-16.231476 17.777331-16.489118 10.048056-0.257642 18.679079 7.729274 19.065542 17.906152 0.644106 18.936722-89.273116 287.528997-131.39766 330.812932-3.478173 3.478173-8.244559 5.539313-13.268587 5.539313z m0 0" p-id="9350" fill="currentColor"></path><path d="M622.263967 1016.914832c-9.275129 0-17.906152-5.281671-22.157252-13.52623-4.251101-8.244559-3.606995-18.292615 1.803497-25.893068 66.085294-92.751289 117.87143-281.732042 121.607246-304.662222 1.03057-12.753302 11.336269-22.672537 24.089571-23.059001 13.655051-0.515285 25.248962 10.305699 25.764247 24.089571 0.515285 15.973833-55.779595 227.111838-130.753554 332.487609-4.766386 6.698704-12.366839 10.563341-20.353755 10.563341z m101.253491-343.695056c-0.128821 1.03057 0 1.803497 0 2.318782v-2.318782z m0 0" p-id="9351" fill="currentColor"></path></svg>