<svg t="1664695040536" class="icon" viewBox="0 0 1024 1024" version="1.1" xmlns="http://www.w3.org/2000/svg" p-id="7133" width="200" height="200"><path d="M319.872 703.872h64a128 128 0 0 1 128-128c24.384 0 46.848 7.168 66.304 19.072l49.408-43.328a189.888 189.888 0 0 0-115.712-39.744 192 192 0 0 0-192 192z m320-384a128 128 0 1 0-256.064 0.064 128 128 0 0 0 256.064-0.064z m-191.488 0a63.488 63.488 0 1 1 126.976 0 63.488 63.488 0 0 1-126.976 0z m351.488-288h-576a128 128 0 0 0-128 128v704a128 128 0 0 0 128 128h288v-64h-288a64 64 0 0 1-64-64v-704a64 64 0 0 1 64-64h576a64 64 0 0 1 64 64v384h64v-384a128 128 0 0 0-128-128z m107.84 802.368a33.28 33.28 0 0 0-14.08-2.368H607.872a32 32 0 0 0 0 64h209.024l-39.488 39.488a33.152 33.152 0 1 0 46.976 46.976l94.016-94.016a33.216 33.216 0 0 0-10.688-54.08z m-11.776-130.368h-208.256l39.424-39.488a33.28 33.28 0 0 0-46.912-47.04l-93.888 94.08a33.28 33.28 0 0 0 10.688 54.08c4.48 1.856 9.28 2.56 14.08 2.368h284.864a32 32 0 0 0 0-64z" fill="currentColor" p-id="7134"></path></svg>