<svg t="1664072466075" class="icon" viewBox="0 0 1024 1024" version="1.1" xmlns="http://www.w3.org/2000/svg" p-id="5788" width="200" height="200"><path d="M949.946663 967.548249c-14.001285-96.120027-60.696594-184.567464-133.61919-251.886095-41.141081-37.979271-88.655517-67.362277-140.026042-87.181698 28.988161-15.116799 55.821419-34.725094 79.60046-58.504135 61.227453-61.228468 94.947671-142.634662 94.947671-229.224599s-33.720217-167.99613-94.947671-229.224599C694.673423 50.299671 613.266215 16.579454 526.677293 16.579454S358.681163 50.299671 297.452694 111.528139c-61.227453 61.227453-94.947671 142.634662-94.947671 229.224599s33.720217 167.99613 94.947671 229.224599c21.288165 21.28715 45.0195 39.24095 70.555553 53.61678-56.478141 19.731113-108.660688 50.843725-153.332033 92.087324-72.927671 67.330812-119.617906 155.791444-133.60701 251.923651-2.62892 18.067483 11.044511 34.492653 29.623568 35.653844l2.05137 0.127893c16.701257 1.043448 31.309528-10.730867 33.690781-26.969272 11.949915-81.509726 51.597891-156.521248 113.475976-213.651037 65.401245-60.383966 149.761167-95.195337 239.091678-99.023005 9.15453 0.769391 18.382142 1.181492 27.674716 1.181492 5.830316 0 11.634241-0.165449 17.412791-0.468943 84.832925 6.316514 164.561278 40.648793 227.006764 98.29523 61.875041 57.119638 101.527077 132.11898 113.487142 213.618556 2.383284 16.238405 16.99257 28.01069 33.693827 26.965212l2.050355-0.127893C938.906213 1002.042932 952.578629 985.615733 949.946663 967.548249zM268.481789 340.751723c0-68.96602 26.856604-133.80494 75.623584-182.57192 48.76698-48.765965 113.604885-75.623584 182.57192-75.623584s133.80494 26.856604 182.57192 75.623584c48.76698 48.76698 75.623584 113.6059 75.623584 182.57192s-26.856604 133.80494-75.623584 182.57192c-48.138678 48.137663-111.94024 74.909004-179.910519 75.591103-4.587923-0.140074-9.184981-0.217216-13.792189-0.217216-64.788169-2.730423-125.307133-29.240902-171.440117-75.373887C295.339408 474.556663 268.481789 409.717743 268.481789 340.751723z" p-id="5789"></path></svg>