<svg t="1664693095843" class="icon" viewBox="0 0 1024 1024" version="1.1" xmlns="http://www.w3.org/2000/svg" p-id="3544" width="200" height="200"><path d="M993.730091 828.590472 530.985912 1020.077667c-5.820566 2.523473-12.240789 3.922333-18.986423 3.922333s-13.164834-1.39886-18.987447-3.922333L30.269909 828.590472C12.731464 821.469284 0.365832 804.257274 0.365832 784.17182L0.365832 48.684816c0-26.493397 21.459754-47.965431 47.965431-47.965431 6.495948 0 12.69002 1.311879 18.336624 3.64604l0 0 0.074701 0.024559c0.149403 0.063445 0.299829 0.125867 0.448208 0.187265l444.807668 184.056969L956.807157 4.578272c0.149403-0.061398 0.298805-0.124843 0.449231-0.187265l0.073678-0.024559 0 0c5.646604-2.335185 11.839653-3.64604 18.337647-3.64604 26.505677 0 47.965431 21.472034 47.965431 47.965431l0 735.487004C1023.634168 804.257274 1011.267513 821.469284 993.730091 828.590472zM486.41888 256.535701 77.110727 103.046934l0 665.136749L486.41888 947.255105 486.41888 256.535701zM946.889273 103.046934 537.582143 256.535701l0 690.719404 409.30713-179.071422L946.889273 103.046934zM636.035456 340.776314l175.874613-79.94375 0 0c6.071276-2.747577 12.791327-4.296863 19.862373-4.296863 26.504654 0 47.965431 21.472034 47.965431 47.966455 0 19.412119-11.517311 36.112476-28.105105 43.669592l0 0-175.874613 79.942727 0 0c-6.072299 2.749624-12.791327 4.296863-19.860327 4.296863-26.505677 0-47.966455-21.484314-47.966455-47.966455C607.931375 365.03481 619.448686 348.332407 636.035456 340.776314zM636.035456 516.663206 636.035456 516.663206l175.874613-79.95603 0 0c6.071276-2.7486 12.791327-4.296863 19.862373-4.296863 26.504654 0 47.965431 21.472034 47.965431 47.966455 0 19.410072-11.517311 36.111452-28.105105 43.681872l-175.874613 79.942727 0 0c-6.072299 2.749624-12.791327 4.295839-19.860327 4.295839-26.505677 0-47.966455-21.48329-47.966455-47.964408C607.931375 540.89612 619.448686 524.208043 636.035456 516.663206zM636.035456 692.537819 636.035456 692.537819l175.874613-79.942727 0 0c6.071276-2.7486 12.791327-4.297886 19.862373-4.297886 26.504654 0 47.965431 21.461801 47.965431 47.966455 0 19.385513-11.517311 36.099173-28.105105 43.669592l0 0-175.874613 79.941704 0 0c-6.072299 2.750647-12.791327 4.296863-19.860327 4.296863-26.505677 0-47.966455-21.484314-47.966455-47.965431C607.931375 716.76971 619.448686 700.081633 636.035456 692.537819zM192.229604 256.535701c7.068999 0 13.814634 1.549286 19.859303 4.296863l0 0 175.874613 79.94375 0 0c16.587793 7.556093 28.104081 24.258497 28.104081 43.667545 0 26.482141-21.458731 47.966455-47.965431 47.966455-7.070023 0-13.790074-1.548262-19.860327-4.296863l0 0-175.87359-79.942727 0 0c-16.587793-7.557116-28.104081-24.257473-28.104081-43.669592C144.26315 278.007735 165.722904 256.535701 192.229604 256.535701zM192.229604 432.410314c7.068999 0 13.814634 1.550309 19.859303 4.296863l0 0 175.874613 79.95603 0 0c16.587793 7.544837 28.104081 24.233937 28.104081 43.669592 0 26.481118-21.458731 47.964408-47.965431 47.964408-7.070023 0-13.790074-1.548262-19.860327-4.294816l0 0-175.87359-79.942727 0 0c-16.587793-7.569396-28.104081-24.2718-28.104081-43.682895C144.26315 453.882348 165.722904 432.410314 192.229604 432.410314zM192.229604 608.296183c7.068999 0 13.814634 1.551332 19.859303 4.297886l0 0 175.874613 79.942727 0 0c16.587793 7.543813 28.104081 24.232914 28.104081 43.668569 0 26.481118-21.458731 47.965431-47.965431 47.965431-7.070023 0-13.790074-1.548262-19.860327-4.296863l0 0-175.87359-79.941704 0 0c-16.587793-7.568373-28.104081-24.282033-28.104081-43.669592C144.26315 629.757984 165.722904 608.296183 192.229604 608.296183z" p-id="3545"></path></svg>