<svg t="1664593408561" class="icon" viewBox="0 0 1024 1024" version="1.1" xmlns="http://www.w3.org/2000/svg" p-id="8420" width="220" height="220"><path d="M921.4 209.9H622.1v-90.6H389.5v90.6H108.7c-19.3 0-35.1 15.7-35.1 35.1v631.6c0 19.3 15.7 35.1 35.1 35.1h812.8c19.3 0 35.1-15.7 35.1-35.1V245c-0.1-19.4-15.8-35.1-35.2-35.1z m-461.9-20.6h92.6V282.1c0 24.8-19.4 45.1-44.1 46.2-12.5 0.6-24.5-3.9-33.7-12.7-9.6-9.1-14.8-21.4-14.8-34.7V245v-55.7z m427 652.4H143.6V279.9h245.9v1c0 32.1 13.3 63.2 36.5 85.3 21.8 20.8 50 32.1 79.7 32.1 1.8 0 3.7 0 5.5-0.1C573.3 395.3 622 344.3 622 282v-2.2h264.5v561.9z" p-id="8421"></path><path d="M385.9 501.2l-49.5 49.5 166.8 166.8 247.4-247.4-49.5-49.5-197.9 197.9z" p-id="8422" fill="currentColor"></path></svg>