<svg t="1664709068276" class="icon" viewBox="0 0 1024 1024" version="1.1" xmlns="http://www.w3.org/2000/svg" p-id="8255" width="200" height="200"><path d="M456.544 783.104a272.32 272.32 0 0 1 272.288-272.288c34.144 0 66.72 6.56 96.832 18.048-31.264-84.16-71.616-154.592-102.656-184.48-44.064-42.304-151.2-106.208-161.312-139.168a331.136 331.136 0 0 1-2.816-8.704c9.472-0.992 16.8-6.816 16.8-13.888 0-7.84-8.8-14.112-19.584-14.112h-1.024c2.592-30.432 31.424-47.04 60.16-143.808-114.08-35.072-111.84-8-198.752 34.976-64.32 13.504-59.904-74.624-141.184-33.952 41.376 88.224 75.296 111.872 82.88 142.976-9.472 1.024-16.704 6.784-16.704 13.92 0 7.072 7.264 12.864 16.704 13.888-0.288 1.44-0.48 2.688-0.864 4.256-8.768 34.592-120 98.176-167.232 143.616-103.616 99.744-311.84 649.216 66.144 662.496 177.728 6.144 200.256 6.144 200.256 6.144s15.68 0 121.12-3.456a272.16 272.16 0 0 1-121.056-226.464z m-17.28-192.384v39.04h-95.136v53.696h95.136v39.36h-95.136v78.208H295.2v-78.208H196.544v-39.36h98.656V629.76H196.544v-39.04h84.128l-102.592-176.256h55.136c48 87.52 77.088 143.136 87.488 166.592h0.896c3.552-9.728 13.152-29.152 28.768-58.496l58.688-108.096h52.16l-103.616 176.256h81.664z" p-id="8256" fill="currentColor"></path><path d="M751.744 714.688H713.92a5.664 5.664 0 0 0-5.696 5.696c0 3.136 2.56 5.728 5.696 5.728h37.856a5.728 5.728 0 0 0-0.032-11.424z m93.12-26.848c-1.824-9.792-5.088-17.632-9.824-23.36a28.32 28.32 0 0 0-14.912-9.664c-13.248-3.36-29.6 2.912-39.648 15.36-10.816 13.28-16.64 27.392-19.616 37.728a15.392 15.392 0 0 1 4.512 19.808c5.92 0.288 12.928 0.544 20.416 0.288 25.632-0.8 43.936-6.176 52.896-15.552 6.048-6.304 8.064-14.304 6.176-24.608z m-116.064-142.848a238.304 238.304 0 0 0-238.272 238.272 238.304 238.304 0 0 0 238.272 238.24 238.24 238.24 0 0 0 238.24-238.24 238.208 238.208 0 0 0-238.24-238.272z m-3.968 379.264H616.64a6.528 6.528 0 0 1-6.496-6.56v-116.672h114.72v123.232z m132.32-6.56a6.528 6.528 0 0 1-6.528 6.56h-108.192v-123.232h114.72v116.672z m16.928-134.4l-131.968-0.192v-47.264h-17.28v47.264l-131.968 0.192-0.032-45.824c0-3.552 2.912-6.464 6.528-6.464h69.504c-15.424-14.24-35.712-30.656-53.696-37.536-17.024-6.464-31.712-5.056-43.456 4.256-8.896 6.944-12.8 15.84-12.864 15.936a4.8 4.8 0 0 1-6.4 2.528 4.96 4.96 0 0 1-2.56-6.4c0.192-0.416 4.928-11.264 15.744-19.776 10.112-8 27.488-15.392 53.088-5.632 15.488 5.888 34.08 18.656 55.168 37.856 3.328 3.104 6.4 6.016 9.248 8.768h19.52a15.584 15.584 0 0 1-4.224-10.624c0-4.864 2.24-9.248 5.856-12.064-5.152-16.384-12.928-30.368-22.784-40.608-7.744-8.032-16.864-13.792-24.48-15.36-9.984-2.144-18.272-0.8-24.8 3.968a30.368 30.368 0 0 0-10.944 17.344c-0.672 2.592-3.264 4.256-5.888 3.584s-4.256-3.264-3.616-5.92c2.304-9.568 7.52-17.664 14.688-22.944 8.672-6.336 19.968-8.32 32.576-5.664 9.6 2.016 20.384 8.672 29.504 18.208 10.784 11.232 19.328 26.336 24.896 43.936h38.144c3.296-11.168 9.568-26.528 21.312-40.928 5.888-7.232 13.856-13.12 22.56-16.48 9.184-3.52 18.592-4.32 27.168-2.112 7.84 2.016 14.592 6.336 20 12.928 5.76 7.008 9.728 16.32 11.872 27.776 2.432 13.408-0.512 24.608-8.704 33.12a51.808 51.808 0 0 1-18.944 11.776h40.704c3.584 0 6.592 2.912 6.592 6.464l-0.064 45.888z" p-id="8257" fill="currentColor"></path></svg>