<svg t="1664593869285" class="icon" viewBox="0 0 1092 1024" version="1.1" xmlns="http://www.w3.org/2000/svg" p-id="12387" width="200" height="200"><path d="M955.733333 204.8h-273.066666V102.4C682.666667 47.786667 634.88 0 580.266667 0h-68.266667C457.386667 0 409.6 47.786667 409.6 102.4V204.8H136.533333C61.44 204.8 0 266.24 0 341.333333v546.133334c0 75.093333 61.44 136.533333 136.533333 136.533333h819.2c75.093333 0 136.533333-61.44 136.533334-136.533333V341.333333c0-75.093333-61.44-136.533333-136.533334-136.533333zM477.866667 102.4c0-20.48 13.653333-34.133333 34.133333-34.133333h68.266667c20.48 0 34.133333 13.653333 34.133333 34.133333v204.8c0 20.48-13.653333 34.133333-34.133333 34.133333h-68.266667c-20.48 0-34.133333-13.653333-34.133333-34.133333v-204.8zM1024 887.466667c0 40.96-27.306667 68.266667-68.266667 68.266666H136.533333c-40.96 0-68.266667-27.306667-68.266666-68.266666V341.333333c0-40.96 27.306667-68.266667 68.266666-68.266666h273.066667v34.133333C409.6 361.813333 457.386667 409.6 512 409.6h68.266667c54.613333 0 102.4-47.786667 102.4-102.4V273.066667h273.066666c40.96 0 68.266667 27.306667 68.266667 68.266666v546.133334z" p-id="12388" fill="#303133"></path><path d="M785.066667 546.133333h-477.866667c-20.48 0-34.133333 13.653333-34.133333 34.133334s13.653333 34.133333 34.133333 34.133333h477.866667c20.48 0 34.133333-13.653333 34.133333-34.133333s-13.653333-34.133333-34.133333-34.133334zM785.066667 750.933333h-477.866667c-20.48 0-34.133333 13.653333-34.133333 34.133334s13.653333 34.133333 34.133333 34.133333h477.866667c20.48 0 34.133333-13.653333 34.133333-34.133333s-13.653333-34.133333-34.133333-34.133334z" p-id="12389" fill="#303133"></path></svg>