<svg t="1665644164686" class="icon" viewBox="0 0 1024 1024" version="1.1" xmlns="http://www.w3.org/2000/svg" p-id="5358" width="200" height="200"><path d="M512.199883 124.527035c52.369315 0 103.139567 10.293968 150.911575 30.482139 46.172946 19.488581 87.648643 47.472184 123.227796 83.151279 35.679094 35.679094 63.562756 77.154792 83.151279 123.227796 20.188171 47.772009 30.482139 98.54226 30.482139 150.911575s-10.293968 103.139567-30.482139 150.911576c-19.488581 46.172946-47.472184 87.648643-83.151279 123.227796-35.679094 35.679094-77.154792 63.562756-123.227796 83.151278-47.772009 20.188171-98.54226 30.482139-150.911575 30.48214s-103.139567-10.293968-150.911575-30.48214c-46.172946-19.488581-87.648643-47.472184-123.227797-83.151278-35.679094-35.679094-63.562756-77.154792-83.151278-123.227796-20.188171-47.772009-30.482139-98.54226-30.48214-150.911576s10.293968-103.139567 30.48214-150.911575c19.488581-46.172946 47.472184-87.648643 83.151278-123.227796 35.679094-35.679094 77.154792-63.562756 123.227797-83.151279 47.772009-20.188171 98.54226-30.482139 150.911575-30.482139m0-59.964864c-247.255124 0-447.737654 200.48253-447.737654 447.737653s200.48253 447.737654 447.737654 447.737654 447.737654-200.48253 447.737654-447.737654-200.48253-447.737654-447.737654-447.737653z" p-id="5359" fill="#008a89"></path><path d="M262.346281 482.317392h499.707203v59.964864h-499.707203z" p-id="5360" fill="#008a89"></path></svg>