<svg t="1668691598012" class="icon" viewBox="0 0 1024 1024" version="1.1" xmlns="http://www.w3.org/2000/svg" p-id="4886" width="200" height="200"><path d="M728 67c41.554 0 75.319 33.35 75.99 74.743L804 143v24.344c0 19.882-16.118 36-36 36s-36-16.118-36-36V143a4 4 0 0 0-3.8-3.995L728 139H168a4 4 0 0 0-3.995 3.8l-0.005 0.2v715H92V143c0-41.554 33.35-75.319 74.743-75.99L168 67h560z" p-id="4887"></path><path d="M856 239c41.554 0 75.319 33.35 75.99 74.743L932 315v543h-72V315a4 4 0 0 0-3.8-3.995L856 311H296a4 4 0 0 0-3.995 3.8l-0.005 0.2v543h-72V315c0-41.554 33.35-75.319 74.743-75.99L296 239h560z" p-id="4888"></path><path d="M686.916 404.078c13.445 13.438 13.445 35.317 0 48.754L616.707 523h71.577C707.378 523 723 539.104 723 558.787s-15.448 35.787-34.716 35.787H614v14.851h74.284c19.094 0 34.716 16.105 34.716 35.788C723 664.896 707.552 681 688.284 681H614v51.578C614 752.06 599.092 768 580.5 768c-18.425 0-33.5-15.94-33.5-35.422V681h-82.284C445.622 681 430 664.896 430 645.213s15.622-35.787 34.716-35.787l82.284-0.001v-14.851h-82.284c-19.094 0-34.716-16.104-34.716-35.787S445.622 523 464.716 523h77.842l-69.322-69.282c-13.648-13.64-13.648-35.848 0-49.488s35.869-13.64 49.517 0l57.614 57.581 57.767-57.733c13.445-13.437 35.337-13.437 48.782 0zM164 858c0 15.464 12.536 28 28 28 15.31 0 27.749-12.287 27.996-27.537L220 858h72c0 55.228-44.772 100-100 100-54.676 0-99.104-43.88-99.987-98.346L92 858h72zM932 858c0 54.676-43.88 99.104-98.346 99.987L832 958H420c-19.882 0-36-16.118-36-36s16.118-36 36-36h412c15.31 0 27.749-12.287 27.996-27.537L860 858h72z" p-id="4889"></path></svg>