<svg t="1668692527913" class="icon" viewBox="0 0 1024 1024" version="1.1" xmlns="http://www.w3.org/2000/svg" p-id="6506" width="200" height="200"><path d="M910.222222 815.672889v-512a85.333333 85.333333 0 0 0-85.333333-85.333333h-625.777778a85.333333 85.333333 0 0 0-85.333333 85.333333v512a85.333333 85.333333 0 0 0 85.333333 85.333333h625.777778a85.333333 85.333333 0 0 0 85.333333-85.333333z m-711.111111 142.222222a142.222222 142.222222 0 0 1-142.222222-142.222222v-512a142.222222 142.222222 0 0 1 142.222222-142.222222h625.777778a142.222222 142.222222 0 0 1 142.222222 142.222222v512a142.222222 142.222222 0 0 1-142.222222 142.222222h-625.777778z" p-id="6507"></path><path d="M498.972444 494.364444a28.444444 28.444444 0 1 1 0-56.888888h56.888889a28.444444 28.444444 0 0 1 0 56.888888h-56.888889zM498.972444 639.431111a28.444444 28.444444 0 1 1 0-56.888889h56.888889a28.444444 28.444444 0 0 1 0 56.888889h-56.888889zM498.972444 784.497778a28.444444 28.444444 0 1 1 0-56.888889h56.888889a28.444444 28.444444 0 0 1 0 56.888889h-56.888889zM288.768 639.431111a28.444444 28.444444 0 1 1 0-56.888889h56.888889a28.444444 28.444444 0 1 1 0 56.888889h-56.888889zM288.768 784.497778a28.444444 28.444444 0 1 1 0-56.888889h56.888889a28.444444 28.444444 0 1 1 0 56.888889h-56.888889zM731.079111 494.364444a28.444444 28.444444 0 0 1 0-56.888888h56.888889a28.444444 28.444444 0 1 1 0 56.888888h-56.888889zM731.079111 639.431111a28.444444 28.444444 0 0 1 0-56.888889h56.888889a28.444444 28.444444 0 1 1 0 56.888889h-56.888889zM731.079111 784.497778a28.444444 28.444444 0 0 1 0-56.888889h56.888889a28.444444 28.444444 0 1 1 0 56.888889h-56.888889zM256 94.549333a28.444444 28.444444 0 1 1 56.888889 0v170.666667a28.444444 28.444444 0 0 1-56.888889 0v-170.666667zM711.111111 94.549333a28.444444 28.444444 0 1 1 56.888889 0v170.666667a28.444444 28.444444 0 1 1-56.888889 0v-170.666667z" p-id="6508"></path><path d="M400.099556 367.502222L317.155556 450.56l-31.914667-32.028444a24.974222 24.974222 0 0 0-35.271111 35.271111l52.792889 52.792889a25.031111 25.031111 0 0 0 27.306666 5.233777 27.192889 27.192889 0 0 0 10.979556-6.485333l98.417778-98.474667c10.865778-10.922667 10.865778-28.501333 0-39.424a27.932444 27.932444 0 0 0-39.367111 0z" p-id="6509"></path></svg>
